<?xml version="1.0" standalone="no"?><!DOCTYPE svg PUBLIC "-//W3C//DTD SVG 1.1//EN" "http://www.w3.org/Graphics/SVG/1.1/DTD/svg11.dtd"><svg t="1656556413683" class="icon" viewBox="0 0 1024 1024" version="1.1" xmlns="http://www.w3.org/2000/svg" p-id="12632" xmlns:xlink="http://www.w3.org/1999/xlink" width="16" height="16"><defs><style type="text/css">@font-face { font-family: feedback-iconfont; src: url("//at.alicdn.com/t/font_1031158_u69w8yhxdu.woff2?t=1630033759944") format("woff2"), url("//at.alicdn.com/t/font_1031158_u69w8yhxdu.woff?t=1630033759944") format("woff"), url("//at.alicdn.com/t/font_1031158_u69w8yhxdu.ttf?t=1630033759944") format("truetype"); }
</style></defs><path d="M514.11544814 11.26924305c-275.94723007 0-499.64482426 223.69897501-499.64482425 499.64482426s223.69897501 499.64482426 499.64482425 499.64482424S1013.76027239 786.85991653 1013.76027239 510.91406731 790.06129738 11.26924305 514.11544814 11.26924305z m0 907.58800945c-225.30075037 0-407.94180435-182.63967314-407.94180435-407.94180436s182.63967314-407.94180435 407.94180435-407.94180435 407.94180435 182.63967314 407.94180436 407.94180435-182.63967314 407.94180435-407.94180436 407.94180436z" p-id="12633"></path><path d="M491.39095072 278.52191027c0 32.49670793 26.34230038 58.83900831 58.8390083 58.83900831s58.83900831-26.34230038 58.83900833-58.83900831-26.34230038-58.83900831-58.83900833-58.83900831c-32.49670793 0.0069042-58.83900831 26.34782375-58.8390083 58.83900831z m41.90851897 541.78394365c-43.40811211 10.86031307-103.49678137 9.88820114-133.5245459-2.17068177-30.0332879-12.05197871-40.96540469-55.89505568-24.29313261-97.41832006l74.88575952-186.56402277c16.67089125-41.52740691-4.97240781-85.28901427-48.08778167-97.25538084l-14.31103428-3.97267905c-43.1167547-11.96498574-42.26201424-27.64029076 1.90417949-34.83032893l42.86129917-6.98015035c44.16619372-7.19418068 104.87209883-3.21459744 134.90400588 8.84152378 30.0332879 12.05197871 40.89360097 55.86467717 24.13571674 97.35756306l-69.82083538 172.88817526c-16.75788422 41.4928859 4.21570702 85.91453516 46.59647357 98.71907212s41.54950036 32.16806781-1.85861173 43.0283809l-33.38873111 8.35684865z" p-id="12634"></path></svg>