<svg xmlns="http://www.w3.org/2000/svg" viewBox="0 0 64 64"><defs><style>.cls-1{}</style></defs><title>地球1</title><g id="图层_2" data-name="图层 2"><g id="图层_1-2" data-name="图层 1"><path class="cls-1" d="M64,32A32,32,0,1,0,28,63.7a16,16,0,0,0,3.27.3,10.3,10.3,0,0,0,1-.05A32,32,0,0,0,64,32Zm-4.58.45a31.31,31.31,0,0,0-.62-4.67c0-.54,0-1.06,0-1.53A27.49,27.49,0,0,1,59.43,32C59.43,32.13,59.43,32.28,59.42,32.43ZM4.57,32a27.5,27.5,0,0,1,.58-5.65c1.18,1.27,4,1.24,4.66-.66,1.22.73,2.86.86,2.86,2.31,0,4.79.17,9.92,4.52,10a6.2,6.2,0,0,1,3.52,3.72c.38,1,1.88,0,3.52,0,.82,0,0,1.38,0,4.37s6.42,7.57,6.42,7.57a34.48,34.48,0,0,0,.22,4.84,10.75,10.75,0,0,0-3.63.49A27.42,27.42,0,0,1,4.57,32ZM38.75,58.54c-.14-.7-.76-1.08-1.9-.78.91-3.86,1.35-6,3.24-7.66,2.74-2.37.33-5-1.76-4.7-1.64.25-.6-2-2.07-2.16s-3.38-3-5.48-4c-1.12-.53-2.21-2-3.94-2-1.53-.06-3.76,1.29-3.76.25a64.7,64.7,0,0,0-.41-6.7c-.06-.77-.5-.26,1.56-.21,1.12,0,.57-2.26,1.69-2.35s3.69,1,4.36.58S34.81,39,34.81,30.54c0-1-.52-2.76,0-3.72,2.07-3.78,4-6.85,3.83-7.3-.1-.25-2.11-.46-3.73.08-.54.18.17,1-.61,1.22-2.93.68-5.52-.79-4.61-2.17S34,18,34.28,15.2c.17-1.62.31-3.5.4-4.9,3.94.62,3.51-5.12-2.35-5.73A27.44,27.44,0,0,1,57.92,23a1.12,1.12,0,0,0-.65-.3c-1.77-4.43-6.07-1.22-4.61,2.68-7.82,6-5.82,10.2-3.25,12.6a23.26,23.26,0,0,1,3.48,4.52c-.91,2.66,3.36,1.6,5.47-2.92A27.47,27.47,0,0,1,38.75,58.54Z"/><path class="cls-1" d="M32,0A32,32,0,1,0,64,32,32,32,0,0,0,32,0Zm0,58A26,26,0,1,1,58,32,26,26,0,0,1,32,58Z"/></g></g></svg>