<svg xmlns="http://www.w3.org/2000/svg" viewBox="0 0 64 64"><defs><style>.cls-1{}.cls-2{}</style></defs><title>初始范围</title><g id="图层_2" data-name="图层 2"><g id="图层_1-2" data-name="图层 1"><path class="cls-1" d="M60.61,29.2a3.22,3.22,0,0,1,0,6.4H50.41a3.22,3.22,0,0,1,0-6.4Z"/><path class="cls-1" d="M35.39,14.16a3.22,3.22,0,0,1-6.4,0V4a3.22,3.22,0,0,1,6.4,0Z"/><path class="cls-1" d="M35.39,61.06a3.22,3.22,0,0,1-6.4,0V50.86a3.22,3.22,0,0,1,6.4,0Z"/><path class="cls-1" d="M14.48,29.2a3.22,3.22,0,0,1,0,6.4H4.28a3.22,3.22,0,0,1,0-6.4Z"/><path class="cls-2" d="M25.28,32.4a7.11,7.11,0,1,0,7.11-7.11A7.11,7.11,0,0,0,25.28,32.4Z"/><path class="cls-2" d="M32,0A32,32,0,1,0,64,32,32,32,0,0,0,32,0Zm0,57A25,25,0,1,1,57,32,25,25,0,0,1,32,57Z"/></g></g></svg>