<?xml version="1.0" standalone="no"?><!DOCTYPE svg PUBLIC "-//W3C//DTD SVG 1.1//EN" "http://www.w3.org/Graphics/SVG/1.1/DTD/svg11.dtd"><svg t="1656556320037" class="icon" viewBox="0 0 1024 1024" version="1.1" xmlns="http://www.w3.org/2000/svg" p-id="12354" xmlns:xlink="http://www.w3.org/1999/xlink" width="16" height="16"><defs><style type="text/css">@font-face { font-family: feedback-iconfont; src: url("//at.alicdn.com/t/font_1031158_u69w8yhxdu.woff2?t=1630033759944") format("woff2"), url("//at.alicdn.com/t/font_1031158_u69w8yhxdu.woff?t=1630033759944") format("woff"), url("//at.alicdn.com/t/font_1031158_u69w8yhxdu.ttf?t=1630033759944") format("truetype"); }
</style></defs><path d="M65.024 197.94a86.733 86.733 0 1 0 173.466 0 86.733 86.733 0 1 0-173.466 0zM65.024 512a86.733 86.733 0 1 0 173.466 0 86.733 86.733 0 1 0-173.466 0zM65.024 826.06a86.733 86.733 0 1 0 173.466 0 86.733 86.733 0 1 0-173.466 0zM330.957 147.251h628.121v101.376H330.957z m0 314.061h628.121v101.376H330.957z m0 314.06h628.121V876.75H330.957z" p-id="12355"></path></svg>