<svg xmlns="http://www.w3.org/2000/svg" viewBox="0 0 64 57"><defs><style>.cls-1{}</style></defs><title>测量工具</title><g id="图层_2" data-name="图层 2"><g id="图层_1-2" data-name="图层 1"><path class="cls-1" d="M64,27.63V53a4,4,0,0,1-4,4H4a4,4,0,0,1-4-4V27.63a4,4,0,0,1,4-4H60A4,4,0,0,1,64,27.63Zm-13.09,23h6.73V30H6.36V50.67h6.73m26.18,0h7.27m-17.46,0h5.82m-17.45,0h7.27M5.82,2.91v3.4H58.18V2.91A2.91,2.91,0,0,1,61.09,0h0A2.91,2.91,0,0,1,64,2.91V15.48a2.91,2.91,0,0,1-2.91,2.91h0a2.91,2.91,0,0,1-2.91-2.91v-3.4H5.82v3.4a2.91,2.91,0,0,1-2.91,2.91h0A2.91,2.91,0,0,1,0,15.48V2.91A2.91,2.91,0,0,1,2.91,0h0A2.91,2.91,0,0,1,5.82,2.91Z"/><path class="cls-1" d="M14.64,36.7h0a3,3,0,0,1,3,3V53.37a0,0,0,0,1,0,0h-6a0,0,0,0,1,0,0V39.7A3,3,0,0,1,14.64,36.7Z"/><path class="cls-1" d="M26.33,36.7h0a3,3,0,0,1,3,3V53.37a0,0,0,0,1,0,0h-6a0,0,0,0,1,0,0V39.7A3,3,0,0,1,26.33,36.7Z"/><path class="cls-1" d="M38,36.7h0a3,3,0,0,1,3,3V53.37a0,0,0,0,1,0,0H35a0,0,0,0,1,0,0V39.7A3,3,0,0,1,38,36.7Z"/><path class="cls-1" d="M49.72,36.7h0a3,3,0,0,1,3,3V53.37a0,0,0,0,1,0,0h-6a0,0,0,0,1,0,0V39.7A3,3,0,0,1,49.72,36.7Z"/></g></g></svg>