<svg xmlns="http://www.w3.org/2000/svg" viewBox="0 0 57.6 64"><defs><style>.cls-1{}</style></defs><title>通知</title><g id="图层_2" data-name="图层 2"><g id="图层_1-2" data-name="图层 1"><path class="cls-1" d="M28.54,64c5,0,9.28-3.2,9.28-6.4H19.2C19.2,60.8,23.5,64,28.54,64ZM50.4,46.11V28c0-10.12-5.87-18.6-16.2-20.84V4.94A5.18,5.18,0,0,0,28.8,0a5.18,5.18,0,0,0-5.4,4.94V7.19C13.1,9.43,7.2,17.87,7.2,28V46.11L0,51.1v3.3H57.6V51.1ZM43.92,48H13.62V28.89A14.83,14.83,0,0,1,28.8,13.8,14.78,14.78,0,0,1,43.92,28.89Z"/></g></g></svg>