<svg xmlns="http://www.w3.org/2000/svg" viewBox="0 0 62 62"><defs><style>.cls-1{}</style></defs><title>鹰眼</title><g id="图层_2" data-name="图层 2"><g id="图层_1-2" data-name="图层 1"><path class="cls-1" d="M41.66,53.28c4.46,0,8.43-3,11.89-8.82a1.7,1.7,0,0,0,0-1.7c-3.49-5.85-7.43-8.85-11.89-8.85s-8.4,3-11.89,8.85a1.7,1.7,0,0,0,0,1.7C33.26,50.31,37.23,53.28,41.66,53.28Zm-4.18-12.1a4.85,4.85,0,1,1,0,4.85A4.79,4.79,0,0,1,37.47,41.18Z"/><path class="cls-1" d="M56.83,0H5.17A5.17,5.17,0,0,0,0,5.17V56.83A5.17,5.17,0,0,0,5.17,62H56.83A5.17,5.17,0,0,0,62,56.83V5.17A5.17,5.17,0,0,0,56.83,0Zm0,55.86H26.48V30.35H55.86V55.86ZM25.51,24.22a5.17,5.17,0,0,0-5.17,5.17V55.86H6.14V6.14H55.86V24.22Z"/></g></g></svg>