<svg xmlns="http://www.w3.org/2000/svg" viewBox="0 0 62 62"><defs><style>.cls-1{}</style></defs><title>设置</title><g id="图层_2" data-name="图层 2"><g id="图层_1-2" data-name="图层 1"><path class="cls-1" d="M31,44.29A13.49,13.49,0,0,1,17.37,31a13.62,13.62,0,0,1,27.24,0A13.49,13.49,0,0,1,31,44.29Zm0-20.07a6.78,6.78,0,1,0,7,6.78A6.89,6.89,0,0,0,31,24.22ZM36.32,62H25.77a6,6,0,0,1-6-5.87,1.44,1.44,0,0,0-.91-1.33c-.91-.44-1.82-1-2.72-1.55a1.65,1.65,0,0,0-1.59-.11,6.09,6.09,0,0,1-8.28-2.21L.8,42.07a5.75,5.75,0,0,1-.57-4.54A6,6,0,0,1,3.07,34a1.88,1.88,0,0,0,.79-1.44v-3.1A1.6,1.6,0,0,0,3.07,28,5.88,5.88,0,0,1,.8,19.93l5.33-9a6.19,6.19,0,0,1,8.28-2.21A1.63,1.63,0,0,0,16,8.64c.91-.55,1.82-1.11,2.72-1.55a1.44,1.44,0,0,0,.91-1.33,6,6,0,0,1,6-5.76H36.21a6,6,0,0,1,6.13,5.87,1.44,1.44,0,0,0,.91,1.33c.91.44,1.82,1,2.72,1.55a1.86,1.86,0,0,0,1.7.11,5.93,5.93,0,0,1,4.54-.55,6.08,6.08,0,0,1,3.63,2.77l5.33,9a5.79,5.79,0,0,1-2.27,8.08,1.88,1.88,0,0,0-.79,1.44v3.1a1.6,1.6,0,0,0,.79,1.44,6.32,6.32,0,0,1,2.84,3.54,5.86,5.86,0,0,1-.57,4.54l-5.33,8.75a6.3,6.3,0,0,1-8.28,2.21,1.6,1.6,0,0,0-1.7.11c-.91.55-1.82,1.11-2.72,1.55a1.44,1.44,0,0,0-.91,1.33A5.81,5.81,0,0,1,36.32,62ZM16.76,46.65a5.72,5.72,0,0,1,3,.89,13.11,13.11,0,0,0,2,1.09,5.4,5.4,0,0,1,3,4.76,1.33,1.33,0,0,0,1.32,1.29h9.45A1.33,1.33,0,0,0,37,53.39a5.22,5.22,0,0,1,3-4.76,20.3,20.3,0,0,0,2-1.09,5.58,5.58,0,0,1,5.69-.2,1.35,1.35,0,0,0,1.83-.5l4.77-8a1.15,1.15,0,0,0,.1-1,1.55,1.55,0,0,0-.61-.79,5.24,5.24,0,0,1-2.74-5V29.9a5.24,5.24,0,0,1,2.74-5,1.3,1.3,0,0,0,.51-1.78l-4.57-8a1.58,1.58,0,0,0-.81-.59,1.8,1.8,0,0,0-1,.1,5.57,5.57,0,0,1-5.69-.2,13.11,13.11,0,0,0-2-1.09,5.4,5.4,0,0,1-3-4.76,1.51,1.51,0,0,0-1.42-1.39H26.31A1.35,1.35,0,0,0,24.89,8.5a5.22,5.22,0,0,1-3,4.76,20.3,20.3,0,0,0-2,1.09,5.76,5.76,0,0,1-5.79.2,1.35,1.35,0,0,0-1.83.5l-4.67,8A1.28,1.28,0,0,0,8,24.85a5.24,5.24,0,0,1,2.74,5V32a5.24,5.24,0,0,1-2.74,5,1.55,1.55,0,0,0-.61.79,1.67,1.67,0,0,0,.1,1l4.77,8a1.37,1.37,0,0,0,1.83.5A6,6,0,0,1,16.76,46.65Z"/></g></g></svg>