<svg xmlns="http://www.w3.org/2000/svg" viewBox="0 0 64 58.24"><defs><style>.cls-1{}</style></defs><title>工具箱</title><g id="图层_2" data-name="图层 2"><g id="图层_1-2" data-name="图层 1"><path class="cls-1" d="M59.78,11.86H48V4.22A4.22,4.22,0,0,0,43.78,0H20.22A4.22,4.22,0,0,0,16,4.22v7.64H4.22A4.22,4.22,0,0,0,0,16.07V54a4.22,4.22,0,0,0,4.22,4.22H59.78A4.22,4.22,0,0,0,64,54V16.07A4.22,4.22,0,0,0,59.78,11.86ZM21.93,5.93H42.07v5.93H21.93ZM58.1,51.58H5.9V37.88H24.51v1.93a3.86,3.86,0,0,0,3.85,3.85h7.28a3.86,3.86,0,0,0,3.85-3.85V37.88H58.1ZM29,39.26V30.83H35v8.43Zm10.46-7V30.29a3.86,3.86,0,0,0-3.85-3.85H28.36a3.86,3.86,0,0,0-3.85,3.85v1.93H5.9V18.51H58.1v13.7Z"/></g></g></svg>