<svg xmlns="http://www.w3.org/2000/svg" viewBox="0 0 64 64"><defs><style>.cls-1{}</style></defs><title>放大</title><g id="图层_2" data-name="图层 2"><g id="图层_1-2" data-name="图层 1"><path class="cls-1" d="M28.8,16A3.2,3.2,0,0,1,32,19.2v6.4h6.4a3.2,3.2,0,0,1,3.18,2.83l0,.37A3.2,3.2,0,0,1,38.4,32H32v6.4a3.2,3.2,0,0,1-2.83,3.18l-.37,0a3.2,3.2,0,0,1-3.2-3.2V32H19.2A3.2,3.2,0,0,1,16,29.17l0-.37a3.2,3.2,0,0,1,3.2-3.2h6.4V19.2A3.2,3.2,0,0,1,28.43,16Zm0-9.6A22.4,22.4,0,1,0,44.37,44.91l.25-.29a3,3,0,0,1,.28-.25,22.4,22.4,0,0,0-16.1-38Zm0-6.4A28.8,28.8,0,0,1,57.6,28.8h0a28.66,28.66,0,0,1-6.3,18L63.06,58.54a3.2,3.2,0,0,1-4.52,4.52L46.77,51.3A28.8,28.8,0,1,1,28.8,0Z"/></g></g></svg>