<?xml version="1.0" encoding="utf-8"?>
<svg version="1.1" xmlns:xlink="http://www.w3.org/1999/xlink" width="32px" height="32px" xmlns="http://www.w3.org/2000/svg">
  <g transform="matrix(1 0 0 1 -42 -281 )">
    <path d="M 32 16  C 32 7.163437500000001  24.8365625 0  16 0  C 7.163437500000001 0  0 7.163437500000001  0 16  C 0 24.8365625  7.163437500000001 32  16 32  C 24.8365625 32  32 24.8365625  32 16  Z M 26.5736875 15.16246875  C 26.627031405629026 15.377860951393068  26.627031405629026 15.603014048606935  26.5736875 15.818406250000002  L 25.367562499999995 16.14646875  C 25.442284009733047 16.5662910205407  25.4917375290873 16.99022007102538  25.51565625 17.41596875  L 25.515656249999996 23.277156249999997  C 25.502045001886483 23.63156455098275  25.376054441534144 23.9724570087533  25.15590625 24.250531250000005  C 24.039439411572882 24.465895501324024  22.89422013022963 24.48735501672202  21.77046875 24.31396875  C 20.9875 23.816781250000002  21.474249999999998 22.9809375  21.22025 22  L 10.93684375 22  C 10.73571875 23.02321875  10.6194375 24.229281250000003  10.386687499999999 24.313968750000004  C 9.238716884038181 24.515156529643612  8.064501865961818 24.515156529643612  6.9165312499999985 24.31396875  C 6.672881138790551 23.99051077070192  6.539385872083691 23.597440157286343  6.535656249999999 23.192500000000003  C 6.472187499999999 22.346187500000003  6.472187499999999 21.542062500000004  6.472187499999999 20.716875  C 6.472187499999999 19.18278125  6.472187499999999 17.64871875  6.535656249999999 16.104125000000003  L 5.414187499999999 15.807937500000005  C 5.376968779931966 15.637139491352551  5.376968779931966 15.460329258647457  5.414187499999999 15.289531250000003  C 5.731624999999998 14.443125000000004  6.154781249999999 13.787187500000003  7.244437499999999 13.882406250000003  C 7.3713437499999985 13.882406250000003  7.614718749999998 13.628468750000003  7.688812499999998 13.437968750000003  C 8.093284471396442 12.494997523962486  8.44645657988945 11.530839232562169  8.746781249999998 10.549718750000004  C 9.153687499999998 9.100343750000004  10.420187499999997 8.057656250000004  11.920687499999998 7.9365937500000046  C 12.502562499999998 7.830718750000003  13.105624999999998 7.756687500000003  13.687531249999997 7.661437500000003  L 13.719281249999998 7.7038125000000015  C 15.223828949827592 7.478906272458114  16.75345230017241 7.478906272458114  18.258 7.703812500000003  C 19.31596875 7.915406250000004  20.373874999999998 8.084687500000003  21.3684375 8.359750000000004  C 22.108414100282793 8.548259904016046  22.699714001093685 9.103601501308908  22.93421875 9.830312500000002  C 23.363539475798138 11.041043603008658  23.81503208252229 12.24379798696818  24.28846875 13.437968750000003  C 24.37309375 13.639062500000003  24.6269375 13.935281250000003  24.77509375 13.914093750000003  C 25.61425 13.772343750000003  26.413 14.326750000000002  26.5736875 15.16246875  Z " fill-rule="nonzero" fill="#2d74e7" stroke="none" transform="matrix(1 0 0 1 42 281 )" />
  </g>
</svg>