<?xml version="1.0" encoding="utf-8"?>
<svg version="1.1" xmlns:xlink="http://www.w3.org/1999/xlink" width="32px" height="32px" xmlns="http://www.w3.org/2000/svg">
  <g transform="matrix(1 0 0 1 -42 -279 )">
    <path d="M 32 16  C 32 7.163444002707305  24.836555997292695 0  16 0  C 7.163444002707305 0  0 7.163444002707305  0 16  C 0 24.836555997292695  7.163444002707305 32  16 32  C 24.836555997292695 32  32 24.836555997292695  32 16  Z M 25.33334375 26  L 6.66665625 26  C 6.66665625 20.84533658194645  10.84533658194645 16.66665625  16 16.66665625  C 13.054475581361178 16.66665625  10.666656250091552 14.278836918730374  10.666656250091552 11.3333125  C 10.666656250091552 8.387788081269623  13.054475581361178 5.999968749999998  16.000000000091553 5.999968749999998  C 18.94552441882193 5.999968749999998  21.333343750091554 8.387788081269623  21.333343750091554 11.3333125  C 21.33332649117308 14.278855964838854  18.94551221488942 16.66665625005056  16 16.66665625  C 21.154663418053552 16.66665625  25.33334375 20.845336581946448  25.33334375 26  Z " fill-rule="nonzero" fill="#2d74e7" stroke="none" transform="matrix(1 0 0 1 42 279 )" />
  </g>
</svg>