<?xml version="1.0" encoding="utf-8"?>
<svg version="1.1" xmlns:xlink="http://www.w3.org/1999/xlink" width="98px" height="64px" xmlns="http://www.w3.org/2000/svg">
  <g transform="matrix(1 0 0 1 -1612 -1648 )">
    <path d="M 31.298429319371728 41  C 31.298429319371728 41.54293555555556  30.918363348740183 40.66502064814816  30.34826454311191 39.523731111111104  C 29.96819857248036 38.82139916666666  29.58813270206151 38.2068587037037  29.113050263825265 37.59231824074074  C 28.25790195517015 36.4510287962963  27.402753546302353 35.397530833333334  26.357572202225136 34  L 8.209424083769633 34  C 6.974209804482986 35.57311388888889  5.9290284604057595 36.80219481481482  4.978863684145944 38.03127574074074  C 3.9336823400687173 39.34814814814814  2.9835175638089013 40.840603611111106  2.1283692551537956 42.33305898148147  L 0.22803960242146612 41.45514407407407  C 1.0831879110765712 39.874897129629616  2.033352787549083 38.382441759259244  3.1735504990183254 36.977777777777774  C 3.648632937254582 36.18765435185185  4.123715275278142 35.660905370370365  4.598797713514399 35.13415638888888  L 4.598797713514399 29  L 26 29  L 26 4.846090555555556  L 23.69711070844241 4.846090555555556  L 23.69711070844241 1  L 56.57281361052029 1  L 56.57281361052029 4.846090555555556  L 54.57746749018325 4.846090555555556  L 56.57281361052029 19  L 69.30502227380563 19  L 69.30502227380563 10.289163240740743  L 67.97479152691427 10.289163240740743  L 67.97479152691427 8.621124814814815  L 74.15086292334752 8.621124814814815  L 74.15086292334752 10.289163240740743  L 73.01066511166559 10.289163240740743  L 73.01066511166559 19  L 89.54353308041557 19  L 93.34419238588023 21.614266111111107  L 93.34419238588023 24  L 59.51832460732984 24  L 59.51832460732984 25  L 93 25  L 93 41.10397805555556  L 97.71495059718586 41.10397805555556  L 97.71495059718586 46.02030175925926  L 88.78340123936519 46.02030175925926  L 88.78340123936519 45.93251027777779  L 88.59336820394306 46.02030175925926  C 88.59336820394306 41.54293546296297  85.5528407395288 37.59231824074074  82.22726387230038 34  L 64.64921465968587 34  C 63.033934409767674 35.836488333333335  59.70835754253927 39.523731111111104  58.663176298674735 41  L 31.298429319371728 41  Z M 37 4.933882037037037  L 37 16.083401944444443  L 36.334302904123035 18.36598083333333  L 44 18.36598083333333  L 44 37  L 33.5788249427356 37  L 28.54295135798429 30.481207129629627  L 28.54295135798429 23.10672157407408  L 30.063215040085076 23.10672157407408  L 32.62866006626309 22.053223611111118  L 32.62866006626309 20.999725648148154  L 28.54295135798429 20.999725648148154  L 28.54295135798429 18.365980833333346  L 34 18.365980833333346  L 34 4.846090555555556  L 28 4.846090555555556  L 28 30.744581574074072  L 27.877835984538606 30.83237314814815  L 33.10374250449934 37.943484259259264  L 33.19875897210405 38  L 45 38  L 45 4.933882037037037  L 37 4.933882037037037  Z M 74.1508629233475 6.338545925925926  L 67.97479152691426 6.338545925925926  L 67.97479152691426 8.006584351851851  L 74.1508629233475 8.006584351851851  L 74.1508629233475 6.338545925925926  Z M 22.08183055873691 37.416735277777775  C 20.84661627945026 37.15336083333334  19.61140200016361 36.88998629629629  18.28117125327225 36.88998629629629  L 18.28117125327225 36.80219481481482  C 17.235989909195027 36.363237314814825  15.905759162303665 36.18765435185186  14.480511947807592 36.363237314814825  C 14.480511947807592 36.62661175925926  14.575528415412304 36.80219481481482  14.575528415412304 37.06556925925926  L 14.765561350621729 37.153360740740744  C 13.530347071335079 37.41673518518519  12.295132792048431 37.85569268518519  11.15493508057919 38.38244166666668  L 11.05991851276178 38.294650185185205  C 9.919720701079843 38.38244166666668  8.684506421793193 38.909190648148154  7.449292242719243 39.69931416666668  C 7.639325177928667 39.874897129629645  7.7343416455333776 40.0504801851852  7.9243746809554985 40.22606305555558  L 8.209424083769633 40.22606305555558  L 7.7343416455333776 40.66502055555557  C 6.974209804482986 41.36735250000002  6.3090944310373045 42.15747601851853  5.738995525196337 42.94759944444446  L 5.643979057591625 42.94759944444446  C 4.693814281331807 43.56213990740741  3.9336823400687195 44.52784638888891  3.2685669666230375 45.84471879629631  C 3.458599901832462 45.93251027777779  3.7436494048592945 46.020301759259276  3.933682340068718 46.10809324074075  L 4.123715375490838 46.020301759259276  C 3.7436494048592945 47.16159120370372  3.5536164696498687 48.302880648148154  3.458600002045158 49.531961574074096  L 3.363583434227749 49.531961574074096  C 2.8885009959914925 50.497668055555565  2.6984680607820684 51.7267489814815  2.8885010962041893 53.04362138888891  C 3.1735504990183254 53.04362138888891  3.3635835344404454 52.955829907407434  3.648632937254582 52.955829907407434  L 3.7436494048592945 52.78024694444447  C 4.028698807673431 53.92153638888891  4.5037812459096855 55.062825833333356  5.0738801517506555 56.11632370370373  L 4.978863684145944 56.20411518518521  C 5.0738801517506555 57.25761314814817  5.643979057591625 58.39890259259261  6.499127366246729 59.540192037037045  C 6.6891603014561545 59.36460907407408  6.879193336878273 59.27681759259261  7.069226272087699 59.101234537037065  L 7.069226272087699 58.837860092592614  L 7.544308710323954 59.27681759259261  C 8.304440551374347 59.97914953703706  9.159588960242147 60.593690000000024  10.014737268897253 61.120438981481506  L 10.014737268897253 61.20823046296298  C 10.679852642342933 62.086145370370396  11.725033986420161 62.78847740740743  13.150281200916233 63.40301787037039  C 13.245297668520946 63.139643425925954  13.340314136125654 62.96406037037039  13.435330603730367 62.70068583333335  L 13.340314136125654 62.52510287037038  C 14.575528415412307 62.8762688888889  15.810742694698954 63.051851851851865  17.14097344159032 63.13964333333334  L 17.14097344159032 63.22743481481483  C 18.186154785667544 63.666392314814814  19.5163855325589 63.84197527777778  20.941632747054978 63.666392314814814  C 20.941632747054978 63.40301787037038  20.846616279450263 63.22743481481483  20.846616279450263 62.964060370370376  L 20.65658324402814 62.87626888888889  C 21.891797523314793 62.61289444444445  23.12701180260144 62.17393694444445  24.26720961428338 61.64718796296297  L 24.36222608188809 61.73497944444444  C 25.50242389357003 61.64718796296297  26.73763817285668 61.12043898148148  27.97285245214333 60.33031546296296  C 27.782819516933902 60.154732499999994  27.687803049329187 59.97914944444444  27.49777001390707 59.80356657407407  L 27.21272061109293 59.80356657407407  L 27.68780294911649 59.36460907407407  C 28.447934790166887 58.66227712962962  29.113050163612563 57.872153611111116  29.68314906945354 57.08203018518519  L 29.77816563727095 57.08203018518519  C 30.72833041353076 56.467489722222226  31.488462354793853 55.50178324074073  32.15357762802684 54.18491083333333  C 31.868528225212703 54.09711935185186  31.678495189790578 54.00932787037037  31.393445786976436 53.921536388888896  L 31.203412851767013 54.00932787037037  C 31.58347882239856 52.868038425925924  31.773511757607988 51.72674898148147  31.868528225212703 50.49766805555555  L 31.96354469281741 50.49766805555555  C 32.43862713105367 49.53196157407407  32.628660066263095 48.30288064814814  32.43862713105367 46.898216759259256  C 32.15357772823953 46.898216759259256  31.96354469281741 46.98600824074073  31.678495290003276 46.98600824074073  L 31.583478722185863 47.16159120370369  C 31.298429319371728 46.02030175925926  30.823346881135475 44.879012314814815  30.253247975294506 43.82551444444444  L 30.348264543111917 43.73772287037037  C 30.2532480755072 42.684224907407405  29.683149169666233 41.54293546296296  28.828000760798435 40.401646111111106  C 28.637967825589012 40.57722907407407  28.447934790166887 40.66502055555555  28.25790185495746 40.840603611111106  L 28.25790185495746 41.103978055555544  L 27.782819516933902 40.66502055555555  C 27.022687675883503 39.962688611111105  26.167539267015712 39.34814814814814  25.3123909583606 38.82139916666666  L 25.3123909583606 38.733607685185184  C 24.362226182100787 37.68010972222222  23.31704483802356 36.97777777777778  22.271863493946334 36.62661175925926  C 22.176847026341623 36.802194722222225  22.08183055873691 37.065569259259256  21.9868139909195 37.241152222222226  L 22.08183055873691 37.416735277777775  Z M 26.26255573462042 49.88312759259259  C 26.26255573462042 47.77613175925925  25.312390958360606 45.75692731481481  23.79212717604712 44.352263333333326  C 22.271863493946334 42.947599444444435  20.086484338187173 42.06968444444445  17.80608881503599 42.069684537037034  C 15.430676724067409 42.069684537037034  13.340314136125654 42.94759944444445  11.820050454024866 44.352263333333326  C 10.299786771924081 45.756927222222224  9.349621895451566 47.77613166666667  9.349621895451566 49.88312759259259  C 9.349621895451566 51.99012351851851  10.299786671711384 54.00932787037037  11.820050454024866 55.413991759259254  C 13.340314136125649 56.81865564814815  15.525693291884814 57.69657064814814  17.80608881503599 57.69657064814814  C 20.18150090600458 57.69657064814814  22.271863493946334 56.81865574074074  23.79212717604712 55.413991759259254  C 25.312390858147904 54.00932787037037  26.26255573462042 51.99012342592592  26.26255573462042 49.88312759259259  Z M 34.90905568962697 42  L 34.90905568962697 42.59643342592592  L 34.90905568962697 47  L 56.28776420770615 47  L 56.28776420770615 42  L 34.90905568962697 42  Z M 78.33158809923101 37.416735277777775  C 77.09637381994436 37.15336083333334  75.86115954065772 36.88998629629629  74.53092879376636 36.88998629629629  L 74.53092879376636 36.80219481481482  C 73.48574744968914 36.363237314814825  72.15551670279777 36.18765435185186  70.73026948830169 36.363237314814825  C 70.73026948830169 36.62661175925926  70.82528595590641 36.80219481481482  70.8252860561191 37.06556925925926  L 71.01531899132853 37.153360740740744  C 69.78010471204188 37.41673518518519  68.54489043275522 37.85569268518519  67.4046926210733 38.38244166666668  L 67.30967615346857 38.294650185185205  C 66.16947834178664 38.38244166666668  64.93426406249999 38.909190648148154  63.69904988342604 39.69931416666668  C 63.889082818635465 39.874897129629645  63.98409928624017 40.0504801851852  64.17413222144961 40.22606305555558  L 64.45918172447642 40.22606305555558  L 63.98409928624017 40.66502055555557  C 63.22396744518977 41.36735250000002  62.55885207174411 42.15747601851853  61.988753165903134 42.94759944444446  L 61.893736698298426 42.94759944444446  C 60.943571922038615 43.56213990740741  60.18343998077551 44.52784638888891  59.51832460732984 45.84471879629631  C 59.70835754253927 45.93251027777779  59.993407045566094 46.020301759259276  60.18343998077551 46.10809324074075  L 60.37347291598494 46.020301759259276  C 59.99340694535339 47.16159120370372  59.803374010143976 48.302880648148154  59.70835754253927 49.531961574074096  L 59.61334107493457 49.531961574074096  C 59.13825863669831 50.497668055555565  58.94822570148888 51.7267489814815  59.13825863669831 53.04362138888891  C 59.423308039512435 53.04362138888891  59.61334107493457 52.955829907407434  59.8983905779614 52.955829907407434  L 60.08842351317082 52.78024694444447  C 60.373472915984955 53.92153638888891  60.84855535422122 55.062825833333356  61.41865426006218 56.11632370370373  L 61.32363779245748 56.20411518518521  C 61.41865426006218 57.25761314814817  61.988753165903155 58.39890259259261  62.843901474558265 59.540192037037045  C 63.033934409767696 59.36460907407408  63.22396744518982 59.27681759259261  63.41400038039924 59.101234537037065  L 63.41400038039924 58.837860092592614  L 63.88908281863549 59.27681759259261  C 64.64921465968588 59.97914953703706  65.50436306855369 60.593690000000024  66.35951137720879 61.120438981481506  L 66.35951137720879 61.20823046296298  C 67.02462675065446 62.086145370370396  68.06980809473168 62.78847740740743  69.49505530922777 63.40301787037039  C 69.59007177683247 63.139643425925954  69.6850882444372 62.96406037037039  69.7801047120419 62.70068583333335  L 69.6850882444372 62.52510287037038  C 70.92030252372385 62.8762688888889  72.15551680301049 63.051851851851865  73.48574754990186 63.13964333333334  L 73.48574754990186 63.22743481481483  C 74.53092889397908 63.666392314814814  75.86115964087045 63.84197527777778  77.28640685536652 63.666392314814814  C 77.28640685536652 63.40301787037038  77.19139038776181 63.22743481481483  77.19139038776181 62.964060370370376  L 77.0013573523397 62.87626888888889  C 78.23657163162635 62.61289444444445  79.47178591091297 62.17393694444445  80.61198372259493 61.64718796296297  L 80.70700019019964 61.73497944444444  C 81.84719800188157 61.64718796296297  83.08241228116822 61.12043898148148  84.31762656045487 60.33031546296296  C 84.12759362524544 60.154732499999994  84.03257715764073 59.97914944444444  83.84254412221861 59.80356657407407  L 83.55749461919179 59.80356657407407  L 84.03257705742804 59.36460907407407  C 84.79270889847842 58.66227712962962  85.45782427192411 57.872153611111116  86.02792317776508 57.08203018518519  L 86.12293964536978 57.08203018518519  C 87.07310442162961 56.467489722222226  87.83323636289269 55.50178324074073  88.49835173633836 54.18491083333333  C 88.21330233352424 54.09711935185186  88.02326929810214 54.00932787037037  87.738219895288 53.921536388888896  L 87.54818696007857 54.00932787037037  C 87.9282529307101 52.868038425925924  88.11828586591952 51.72674898148147  88.21330233352423 50.49766805555555  L 88.30831880112895 50.49766805555555  C 88.78340123936519 49.53196157407407  88.9734341745746 48.30288064814814  88.78340123936519 46.898216759259256  C 88.49835183655105 46.898216759259256  88.30831880112895 46.98600824074073  88.02326929810211 46.98600824074073  L 87.83323636289268 47.16159120370369  C 87.54818696007855 46.02030175925926  87.07310452184227 44.879012314814815  86.5030056160013 43.82551444444444  L 86.59802208360601 43.73772287037037  C 86.5030056160013 42.684224907407405  85.93290671016035 41.54293546296296  85.07775840150522 40.401646111111106  C 84.8877254662958 40.57722907407407  84.69769243087367 40.66502055555555  84.50765949566426 40.840603611111106  L 84.50765949566426 41.103978055555544  L 84.032577057428 40.66502055555555  C 83.27244521637762 39.962688611111105  82.41729680750981 39.34814814814814  81.56214849885471 38.82139916666666  L 81.56214849885471 38.733607685185184  C 80.61198372259489 37.68010972222222  79.56680237851766 36.97777777777778  78.52162113465315 36.62661175925926  C 78.42660466704845 36.802194722222225  78.33158819944371 37.065569259259256  78.23657163162632 37.241152222222226  L 78.33158809923101 37.416735277777775  Z M 82.51231337532722 49.88312759259259  C 82.51231337532722 47.77613175925925  81.56214859906741 45.75692731481481  80.04188481675392 44.352263333333326  C 78.52162113465315 42.947599444444435  76.33624197889398 42.06968444444445  74.05584645574281 42.069684537037034  C 71.68043436477421 42.069684537037034  69.59007177683246 42.94759944444445  68.06980799451898 44.352263333333326  C 66.54954431241819 45.756927222222224  65.59937943594568 47.77613166666667  65.59937943594568 49.88312759259259  C 65.59937943594568 51.99012351851851  66.54954421220552 54.00932787037037  68.06980799451898 55.413991759259254  C 69.59007167661977 56.81865564814815  71.77545083237894 57.69657064814814  74.05584645574281 57.69657064814814  C 76.43125854671139 57.69657064814814  78.52162113465315 56.81865574074074  80.04188481675392 55.413991759259254  C 81.56214849885473 54.00932787037037  82.51231337532722 51.99012342592592  82.51231337532722 49.88312759259259  Z M 52.10703893160995 18.27818925925926  L 52 18.36598083333333  L 52 4.846090555555556  L 48 4.846090555555556  L 48 18.27818925925926  L 52.10703893160995 18.27818925925926  Z " fill-rule="nonzero" fill="#2d74e7" stroke="none" fill-opacity="0.09803921568627451" transform="matrix(1 0 0 1 1612 1648 )" />
  </g>
</svg>