<?xml version="1.0" encoding="utf-8"?>
<svg version="1.1" xmlns:xlink="http://www.w3.org/1999/xlink" width="58px" height="70px" xmlns="http://www.w3.org/2000/svg">
  <g transform="matrix(1 0 0 1 -1641 -1536 )">
    <path d="M 57.87946280273437 60.05840517578125  L 57.87946280273437 62.11107109375  C 57.87946280273437 66.36052329101562  46.34582890625 69.99999993164063  46.34582890625 69.99999993164063  L 41.54010282714843 69.41005086914063  C 41.54010282714843 69.41005086914063  33.85472715820312 68.4820136328125  29.045287436523424 68.4820136328125  C 24.24291264160155 68.4820136328125  16.550472045898424 69.41005086914063  16.550472045898424 69.41005086914063  L 11.77997962158202 69.98635745117187  C 11.77997962158202 69.98635745117187  0.21111207031248774 66.34504426757812  0.21111207031248774 62.11107102539062  L 0.21111207031248774 60.05840510742187  C 0.21111207031248774 56.10899963867186  5.543350354003893 52.12330176757812  11.792660112304675 49.066603085937494  C 12.095361630859363 48.918897207031236  15.850780493164052 69.45176526367186  15.850780493164052 69.45176526367186  L 17.51165346923827 69.41005080078124  C 17.51165346923827 69.41005080078124  14.302582712402334 48.21018876953123  14.62829030761718 48.066068339843746  C 16.358181442871082 47.302177890624996  17.496255786132803 46.586210986328126  19.197887497558582 45.993550927734375  C 19.829104357910147 45.7715111328125  22.84679019531249 44.18916038085937  21.158654174804678 39.928077109374996  C 17.248895556640615 36.0801155859375  14.585538955078118 32.35187545898437  14.585538955078118 24  L 43.59570141601561 24  C 43.59570141601561 32.264773583984365  40.86432303466797 36.02755713867187  36.98037823974609 39.88085322265624  L 37.00284084960936 39.88085322265624  C 35.35184054687499 44.714744990234365  37.992191142578115 45.86114907226562  38.41264002441405 45.99258897460936  C 40.09651907714843 46.530067021484356  41.77288036132812 47.37012786132812  43.46237504882812 48.066068408203115  C 43.88101249267578 48.23826075195312  40.578921262207025 69.41005086914062  40.578921262207025 69.41005086914062  L 42.33417337890624 69.36457602539062  C 42.33417337890624 69.36457602539062  45.913967434082025 48.89887084960937  46.280071406249995 49.07193771484375  C 52.62412266357423 52.07074338867188  57.87946280273437 56.02836927734375  57.87946280273437 60.05840517578125  Z M 45.58173859130859 15.090400048828124  C 45.58173859130859 5.428913027343749  31.95500795898438 0.5986067773437487  31.95500795898438 0.5986067773437487  C 30.02512734375 -0.24057954101562629  28.10946699462891 -0.04941022460937636  26.13556698486328 0.5986067773437487  C 26.13556698486328 0.5986067773437487  12.508292956542967 4.839838486328124  12.508292956542967 15.090400048828124  C 12.508292956542967 16.622903349609377  9.627646987304686 16.293910117187497  8.674526728515625 22  L 49.416863415527345 22  C 47.68235302490233 16.260416142578126  45.58173859130859 16.622903349609377  45.58173859130859 15.090400048828124  Z " fill-rule="nonzero" fill="#2d74e7" stroke="none" fill-opacity="0.09803921568627451" transform="matrix(1 0 0 1 1641 1536 )" />
  </g>
</svg>